<?xml version="1.0" encoding="utf-8"?>
<!-- Generator: Adobe Illustrator 16.0.0, SVG Export Plug-In . SVG Version: 6.00 Build 0)  -->
<!DOCTYPE svg PUBLIC "-//W3C//DTD SVG 1.1//EN" "http://www.w3.org/Graphics/SVG/1.1/DTD/svg11.dtd">
<svg version="1.1" id="圖層_1" xmlns="http://www.w3.org/2000/svg" xmlns:xlink="http://www.w3.org/1999/xlink" x="0px" y="0px"
	 width="132.5px" height="110.5px" viewBox="0 0 132.5 110.5" enable-background="new 0 0 132.5 110.5" xml:space="preserve">
<image overflow="visible" enable-background="new    " width="533" height="533" xlink:href="F57B353F66C5910E.png"  transform="matrix(0.0451 0 0 0.0451 10.7139 35.1001)">
</image>
<image overflow="visible" enable-background="new    " width="207" height="207" xlink:href="F57B353F66C59112.png"  transform="matrix(0.1304 0 0 0.1304 36.6665 33.6001)">
</image>
<image overflow="visible" enable-background="new    " width="364" height="404" xlink:href="F57B353F66C59115.png"  transform="matrix(0.0462 0 0 0.0479 67.2969 37.9341)">
</image>
<g>
	<path d="M83.514,28.04l-7.801-8.927l-7.8,8.927h-2.64l9.279-10.566h2.32l9.28,10.566H83.514z"/>
</g>
<g>
	<path d="M42.367,17.474l7.8,8.927l7.8-8.927h2.64l-9.28,10.566h-2.32l-9.28-10.566H42.367z"/>
</g>
<g>
	<g>
		<path fill="#FEFEFF" d="M75.713,66.1c-5.73,0-10.375,4.303-10.375,9.609c0,3.086,1.57,5.828,4.008,7.586L69.173,86.9l3.585-1.979
			c0.938,0.261,1.928,0.396,2.955,0.396c5.73,0,10.375-4.303,10.375-9.606S81.443,66.1,75.713,66.1z M76.729,78.781L74.2,76.088
			l-5.024,2.693l5.471-5.752l2.707,2.68l4.854-2.68L76.729,78.781z"/>
	</g>
</g>
<image overflow="visible" enable-background="new    " width="818" height="758" xlink:href="F57B353F66C59116.png"  transform="matrix(0.0309 0 0 0.0319 36.6665 65.1289)">
</image>
<g>
	<path fill="#F8FBFF" d="M26.2,85.492c-1.03-0.033-2.006-0.268-2.956-0.643c-0.896-0.355-1.736-0.814-2.523-1.363
		c-0.576-0.398-1.133-0.826-1.678-1.271c-0.429-0.346-0.83-0.723-1.238-1.093c-0.264-0.233-0.527-0.479-0.771-0.731
		c-0.85-0.906-1.628-1.867-2.225-2.969c-0.408-0.749-0.719-1.531-0.872-2.375c-0.082-0.447-0.123-0.924-0.106-1.383
		c0.035-0.966,0.274-1.889,0.826-2.691c0.226-0.332,0.485-0.646,0.742-0.951c0.215-0.265,0.442-0.508,0.677-0.75
		c0.444-0.455,1.014-0.476,1.538-0.146c0.467,0.292,0.841,0.688,1.182,1.106c0.334,0.422,0.688,0.82,1.001,1.261
		c0.243,0.34,0.415,0.719,0.462,1.146c0.063,0.574-0.149,1.029-0.525,1.438c-0.325,0.354-0.663,0.688-0.974,1.049
		c-0.384,0.447-0.382,0.958-0.17,1.479c0.182,0.44,0.445,0.844,0.771,1.19c0.252,0.271,0.488,0.562,0.756,0.819
		c0.752,0.718,1.542,1.395,2.432,1.938c0.451,0.275,0.931,0.506,1.462,0.566c0.478,0.062,0.886-0.104,1.197-0.479
		c0.364-0.438,0.709-0.896,1.096-1.313c0.338-0.363,0.79-0.521,1.286-0.476c0.49,0.045,0.952,0.219,1.372,0.473
		c0.545,0.328,1.079,0.675,1.604,1.031c0.349,0.237,0.66,0.521,0.875,0.898c0.28,0.495,0.164,0.947-0.153,1.357
		c-0.313,0.404-0.646,0.804-0.999,1.176c-0.354,0.373-0.765,0.688-1.214,0.938c-0.502,0.284-1.035,0.498-1.602,0.604
		C27.054,85.418,26.624,85.443,26.2,85.492z"/>
</g>
<g>
	<path fill="#5B5B5B" d="M108.713,27.557c0,0.11-0.09,0.2-0.199,0.2H96.913c-0.11,0-0.2-0.09-0.2-0.2v-1.601
		c0-0.11,0.09-0.199,0.2-0.199h11.601c0.109,0,0.199,0.089,0.199,0.199V27.557z"/>
	<path fill="#5B5B5B" d="M108.713,23.557c0,0.11-0.09,0.2-0.199,0.2H96.913c-0.11,0-0.2-0.09-0.2-0.2v-1.601
		c0-0.11,0.09-0.199,0.2-0.199h11.601c0.109,0,0.199,0.089,0.199,0.199V23.557z"/>
	<path fill="#5B5B5B" d="M108.713,19.557c0,0.11-0.09,0.2-0.199,0.2H96.913c-0.11,0-0.2-0.089-0.2-0.2v-1.601
		c0-0.11,0.09-0.2,0.2-0.2h11.601c0.109,0,0.199,0.089,0.199,0.2V19.557z"/>
</g>
<image overflow="visible" enable-background="new    " width="200" height="200" xlink:href="F57B353F66C59114.png"  transform="matrix(0.1241 0 0 0.1241 90.3008 64.1289)">
</image>
<g>
	<path fill="#BC2F00" d="M17.737,20.858c3.228,0,6.388,0,9.604,0c0.011,0.223,0.029,0.432,0.03,0.64
		c0.003,2.324,0.008,4.647,0.006,6.97c-0.002,1.566-1.083,2.646-2.64,2.648c-1.497,0.001-2.996,0.002-4.494-0.001
		c-1.401-0.002-2.495-1.047-2.502-2.434C17.726,26.1,17.737,23.516,17.737,20.858z M19.394,25.74H19.4
		c0,0.956,0.002,1.911-0.001,2.867c-0.001,0.458,0.096,0.844,0.663,0.824c0.533-0.021,0.676-0.388,0.677-0.846
		c0.003-1.889,0-3.779,0.007-5.667c0.001-0.5-0.179-0.901-0.705-0.91c-0.516-0.007-0.652,0.401-0.648,0.867
		C19.399,23.829,19.394,24.785,19.394,25.74z M23.215,25.746h0.006c0-0.935-0.01-1.869,0.003-2.802
		c0.006-0.498-0.159-0.912-0.679-0.937c-0.561-0.025-0.681,0.416-0.679,0.901c0.008,1.889,0.009,3.779,0.009,5.669
		c0,0.447,0.065,0.855,0.635,0.853c0.578-0.002,0.704-0.401,0.704-0.883C23.215,27.614,23.215,26.679,23.215,25.746z M24.216,25.742
		h0.008c0,0.956,0.002,1.911-0.002,2.868c-0.001,0.459,0.101,0.844,0.666,0.82c0.531-0.022,0.67-0.395,0.671-0.853
		c0.003-1.89,0.001-3.78,0.008-5.669c0-0.498-0.184-0.899-0.71-0.903c-0.514-0.002-0.647,0.403-0.643,0.871
		C24.222,23.832,24.216,24.788,24.216,25.742z"/>
	<path fill="#BC2F00" d="M25.363,18.018c0.693,0.142,1.364,0.283,2.036,0.415c0.628,0.123,0.93,0.462,0.843,0.965
		c-0.151,0.858-0.458,1.122-1.215,0.977c-1.294-0.248-2.582-0.525-3.874-0.785c-1.55-0.31-3.1-0.622-4.653-0.919
		c-0.749-0.143-0.977-0.409-0.888-1.107c0.091-0.706,0.382-0.945,1.132-0.842c0.561,0.077,1.108,0.253,1.67,0.316
		c0.204,0.022,0.523-0.09,0.628-0.249c0.652-0.973,1.439-1.375,2.462-1.184c0.974,0.183,1.63,0.917,1.821,2.037
		C25.346,17.759,25.351,17.879,25.363,18.018z M24.425,17.838c-0.133-0.866-0.538-1.317-1.17-1.38
		c-0.691-0.068-1.166,0.221-1.394,0.867C22.695,17.492,23.525,17.658,24.425,17.838z"/>
</g>
<g>
	<path fill="#333333" d="M102.71,39.027c-4.456,0-8.068,3.612-8.068,8.069s3.612,8.069,8.068,8.069c4.457,0,8.07-3.612,8.07-8.069
		S107.167,39.027,102.71,39.027z M102.71,54.62c-4.154,0-7.522-3.368-7.522-7.523c0-4.154,3.368-7.523,7.522-7.523
		c4.155,0,7.523,3.369,7.523,7.523C110.233,51.252,106.865,54.62,102.71,54.62z"/>
	<polygon fill="#333333" points="106.404,43.782 106.024,43.403 102.71,46.717 99.396,43.403 99.017,43.782 102.331,47.097 
		99.017,50.411 99.396,50.791 102.71,47.477 106.024,50.791 106.404,50.411 103.091,47.097 	"/>
</g>
</svg>
